<svg width="42" height="42" viewBox="0 0 42 42" fill="none" xmlns="http://www.w3.org/2000/svg">
<g id="vuesax/linear/award">
<path id="Vector" d="M0.0733833 14.3622C0.0328289 13.5756 0.0122739 13.0168 0.0117184 12.6857C0.00338531 8.92237 -0.000503458 5.15872 5.2082e-05 1.39481C5.2082e-05 0.983752 0.0394954 0.698514 0.118382 0.539091C0.334209 0.104985 0.719198 0 1.21085 0C14.3505 0 27.4898 0 40.6289 0C41.03 0 41.3116 0.0416608 41.4739 0.124983C41.9205 0.35495 41.9972 0.752395 41.998 1.25982C42.0013 4.80433 42.0005 8.34911 41.9955 11.8942C41.9897 15.8011 41.5255 19.6523 40.2789 23.3692C38.8828 27.5309 36.5945 31.1207 33.4141 34.1386C31.13 36.3058 28.5359 38.1072 25.796 39.6478C23.9949 40.6604 22.4994 41.4278 21.3094 41.95C21.0344 42.0708 20.6911 41.9525 20.3911 41.81C15.1188 39.3003 10.0381 36.2249 6.28154 31.6531C2.21832 26.7088 0.395874 20.6888 0.0733833 14.3622ZM33.5057 31.1065C37.1823 26.9554 39.1614 21.8161 39.7572 16.3302C39.9133 14.8932 39.9922 13.7547 39.9939 12.9149C40.0006 9.29648 40.0017 5.69254 39.9972 2.10304C39.9972 2.03416 39.9628 1.99972 39.8939 1.99972H2.04249C2.01527 1.99972 2.00166 2.01333 2.00166 2.04055C1.99722 5.42952 1.99888 8.81821 2.00666 12.2066C2.01416 15.5028 2.42165 18.7749 3.39162 21.9303C4.76825 26.4113 7.20207 30.2091 10.6931 33.3237C13.7347 36.0383 17.2971 38.113 20.9611 39.8628C20.9894 39.8767 21.0175 39.8769 21.0453 39.8636C25.636 37.6714 30.1 34.9526 33.5057 31.1065Z" fill="#254B77"/>
<g id="Vector_2">
<path d="M26.046 14.8331C27.2652 15.2055 28.216 16.1746 28.5393 17.3936C28.6221 17.7063 28.6635 18.1818 28.6635 18.82C28.664 19.5394 28.6612 20.2582 28.6551 20.9764C28.6343 23.3419 27.061 25.3625 24.7602 25.8741C24.4019 25.9535 23.8497 25.9938 23.1036 25.9949C21.5064 25.9965 19.9093 25.9976 18.3121 25.9982C15.5855 25.9982 13.3289 23.7194 13.3306 20.9972C13.3311 20.284 13.3325 19.571 13.3347 18.8584C13.3364 18.1818 13.3764 17.6952 13.4547 17.3986C13.7789 16.1679 14.7389 15.2105 15.9572 14.8356C15.9844 14.8273 15.998 14.8089 15.998 14.7806C16.0019 13.7407 16.0022 12.7023 15.9988 11.6652C15.9947 10.0346 17.1463 8.51564 18.7379 8.11986C19.0673 8.03821 19.6198 7.99793 20.3954 7.99905C21.0415 8.00071 21.6873 8.00321 22.3328 8.00654C24.4494 8.01821 26.0085 9.68631 25.9977 11.7902C25.9921 12.7856 25.9944 13.7813 26.0044 14.7773C26.0049 14.8062 26.0188 14.8248 26.046 14.8331ZM18.0704 14.6656H23.9303C23.9502 14.6656 23.9692 14.6577 23.9833 14.6437C23.9974 14.6296 24.0053 14.6105 24.0053 14.5906V11.726C24.0053 11.2664 23.8272 10.8256 23.5103 10.5005C23.1934 10.1755 22.7635 9.99293 22.3153 9.99293H19.6854C19.2372 9.99293 18.8073 10.1755 18.4904 10.5005C18.1735 10.8256 17.9954 11.2664 17.9954 11.726V14.5906C17.9954 14.6105 18.0033 14.6296 18.0174 14.6437C18.0315 14.6577 18.0505 14.6656 18.0704 14.6656ZM24.9727 16.6603H17.0246C16.5733 16.6603 16.1405 16.8396 15.8214 17.1587C15.5023 17.4778 15.323 17.9105 15.323 18.3618V20.9339C15.323 21.7496 15.6507 22.5318 16.2339 23.1085C16.8171 23.6853 17.6081 24.0093 18.4329 24.0093H23.5644C23.9728 24.0093 24.3772 23.9298 24.7545 23.7752C25.1319 23.6207 25.4747 23.3941 25.7635 23.1085C26.0523 22.823 26.2813 22.4839 26.4376 22.1108C26.5939 21.7377 26.6743 21.3378 26.6743 20.9339V18.3618C26.6743 17.9105 26.4951 17.4778 26.176 17.1587C25.8568 16.8396 25.424 16.6603 24.9727 16.6603Z" fill="#2DB080"/>
<path d="M21.0062 21.9954C21.5589 21.9954 22.007 21.5474 22.007 20.9947C22.007 20.4421 21.5589 19.994 21.0062 19.994C20.4534 19.994 20.0054 20.4421 20.0054 20.9947C20.0054 21.5474 20.4534 21.9954 21.0062 21.9954Z" fill="#2DB080"/>
</g>
</g>
</svg>
