<svg width="43" height="42" viewBox="0 0 43 42" fill="none" xmlns="http://www.w3.org/2000/svg">
<g id="vuesax/linear/award">
<g id="Vector">
<path d="M5.81136 0C4.38138 0 3.05354 0.510638 2.03212 1.53191C1.01071 2.45106 0.5 3.77872 0.5 5.10638C0.5 6.43404 1.01071 7.7617 2.03212 8.78298C3.56425 10.2128 5.91351 10.7234 7.8542 9.90638C8.46705 9.6 9.0799 9.29362 9.5906 8.78298C10.1013 8.27234 10.5099 7.7617 10.7142 7.14894C11.0206 6.53617 11.1227 5.82128 11.1227 5.20851C11.1227 3.88085 10.612 2.55319 9.5906 1.53191C8.56919 0.510638 7.24135 0 5.81136 0ZM7.8542 7.25106C7.34349 7.7617 6.6285 8.06808 5.81136 8.06808C4.99423 8.06808 4.27924 7.7617 3.66639 7.25106C3.05354 6.6383 2.74712 5.9234 2.74712 5.10638C2.74712 4.28936 3.05354 3.57447 3.66639 3.06383C4.78995 1.94043 6.73064 1.94043 7.8542 3.06383C8.3649 3.57447 8.77347 4.39149 8.77347 5.10638C8.77347 5.9234 8.46705 6.6383 7.8542 7.25106Z" fill="#2DB080"/>
<path d="M41.1524 33.8043C41.5609 33.8043 41.9695 33.6 42.1738 33.3957C42.2759 33.1915 42.4802 32.9872 42.3781 32.5787C42.3781 32.4766 42.2759 32.2723 41.9695 31.5574L40.3352 28.6979V28.3915L40.4374 28.2894C41.0502 27.3702 41.5609 26.3489 42.1738 25.4298C42.3781 25.1234 42.3781 24.9191 42.4802 24.9191C42.5823 24.4085 42.2759 23.8979 41.8674 23.6936C41.7652 23.6936 41.5609 23.5915 40.7438 23.5915C37.0667 23.5915 33.2875 23.5915 29.6104 23.5915C28.9975 23.5915 28.7932 23.6936 28.6911 23.6936C28.1804 23.8979 27.9761 24.3064 27.9761 25.1234V40.3404C27.9761 41.0553 28.0782 41.2596 28.0782 41.3617C28.2825 41.8723 28.7932 42.0766 29.2018 41.9745C29.6104 41.9745 30.1211 41.7702 30.2232 41.1574C30.2232 41.1574 30.2232 40.9532 30.2232 40.4426C30.2232 38.4 30.2232 36.4596 30.2232 34.417V33.9064L30.8361 33.8043C34.2067 33.8043 37.6795 33.8043 41.1524 33.8043ZM30.1211 25.7362H38.5988L38.9052 26.2468L38.8031 26.5532C38.4967 27.0638 38.2924 27.4723 37.986 27.983C37.7817 28.2894 37.7817 28.6979 37.986 29.1064C38.2924 29.7191 38.5988 30.3319 38.9052 30.8426L39.0074 31.1489L38.701 31.6596H30.1211V25.7362Z" fill="#2DB080"/>
</g>
<path id="Vector_2" d="M26.6482 9.3956C25.729 5.31049 21.1326 4.39134 18.4769 4.18709C17.4555 4.08496 16.7405 4.08496 16.4341 4.08496C15.7191 4.08496 15.4126 4.49347 15.3105 4.69773C15.1062 5.10624 15.2084 5.61688 15.5148 5.92326C15.8212 6.12751 16.0255 6.22964 16.2298 6.22964C16.3319 6.22964 16.3319 6.22964 16.4341 6.22964C21.439 6.22964 24.0947 7.5573 24.5033 10.2126C24.6054 10.8254 24.6054 11.336 24.4011 11.7445C23.9925 13.4807 21.8476 14.502 20.3154 15.0126C18.579 15.7275 16.7405 16.2382 15.0041 16.7488C14.1869 16.953 13.3698 17.2594 12.5527 17.4637C9.07987 18.5871 4.89206 20.3233 2.74709 23.7956C1.3171 26.0424 0.908538 29.0041 1.52139 31.8637C3.56422 40.7488 15.0041 41.8722 21.6433 41.8722C22.3583 41.8722 22.6647 41.3616 22.7668 40.953C22.869 40.5445 22.6647 39.9318 22.0519 39.7275C21.9497 39.7275 21.7454 39.6254 21.2347 39.6254C16.9448 39.6254 9.18201 39.0126 5.50491 34.8254C3.97279 32.9871 3.2578 30.7403 3.66636 28.085C4.07493 25.1233 5.91348 22.8764 9.28415 21.2424C11.5313 20.119 13.9827 19.4041 16.3319 18.6892C17.864 18.1786 19.4983 17.7701 20.9283 17.1573C25.6268 15.5233 27.4654 12.8679 26.6482 9.3956Z" fill="#254B77"/>
</g>
</svg>
