<svg width="33" height="32" viewBox="0 0 33 32" fill="none" xmlns="http://www.w3.org/2000/svg">
<path d="M27.4994 10.7849C27.5177 11.6459 27.1338 12.3312 26.5214 12.9286C24.017 15.3272 21.5217 17.7345 19.0264 20.1331C18.0027 21.1171 16.9882 22.1011 15.9553 23.0851C14.6848 24.2976 12.9482 24.3064 11.6869 23.1027C9.91365 21.4158 8.14046 19.7201 6.38554 18.0069C5.2156 16.8647 5.20646 15.1339 6.34898 14.0269C7.46408 12.9199 9.28298 12.9199 10.4895 14.0269C10.8642 14.3695 11.2298 14.721 11.5863 15.0812C12.2261 15.7226 12.2718 16.5309 11.696 17.2249C11.3304 17.673 11.3121 18.0157 11.632 18.3144C11.9611 18.6131 12.3815 18.5692 12.7928 18.165C16.0193 15.0636 19.2366 11.971 22.4631 8.87834C23.7245 7.66588 25.6622 7.7186 26.7956 8.97498C27.2709 9.49335 27.4994 10.0996 27.4994 10.7849Z" fill="#254B77"/>
</svg>
