<svg width="20" height="20" viewBox="0 0 20 20" fill="none" xmlns="http://www.w3.org/2000/svg">
<g id="u:question-circle">
<path id="Vector" d="M9.40817 12.7417C9.37234 12.7813 9.33894 12.823 9.30817 12.8667C9.27664 12.9131 9.25141 12.9636 9.23317 13.0167C9.20915 13.0639 9.1923 13.1145 9.18317 13.1667C9.17908 13.2222 9.17908 13.2779 9.18317 13.3334C9.18036 13.4427 9.20319 13.5511 9.24984 13.65C9.28727 13.7534 9.34698 13.8474 9.42475 13.9251C9.50251 14.0029 9.59643 14.0626 9.69984 14.1C9.79959 14.1441 9.90745 14.1669 10.0165 14.1669C10.1256 14.1669 10.2334 14.1441 10.3332 14.1C10.4366 14.0626 10.5305 14.0029 10.6083 13.9251C10.686 13.8474 10.7457 13.7534 10.7832 13.65C10.8202 13.5487 10.8372 13.4412 10.8332 13.3334C10.8338 13.2237 10.8128 13.115 10.7713 13.0134C10.7298 12.9119 10.6687 12.8196 10.5915 12.7417C10.514 12.6636 10.4219 12.6016 10.3203 12.5593C10.2188 12.517 10.1099 12.4952 9.99984 12.4952C9.88983 12.4952 9.78091 12.517 9.67936 12.5593C9.57781 12.6016 9.48564 12.6636 9.40817 12.7417ZM9.99984 1.66669C8.35166 1.66669 6.7405 2.15543 5.37009 3.07111C3.99968 3.98679 2.93158 5.28827 2.30084 6.81099C1.67011 8.33371 1.50509 10.0093 1.82663 11.6258C2.14817 13.2423 2.94185 14.7271 4.10728 15.8926C5.27272 17.058 6.75758 17.8517 8.37409 18.1732C9.9906 18.4948 11.6662 18.3297 13.1889 17.699C14.7116 17.0683 16.0131 16.0002 16.9288 14.6298C17.8444 13.2594 18.3332 11.6482 18.3332 10C18.3332 8.90567 18.1176 7.82204 17.6988 6.81099C17.28 5.79994 16.6662 4.88129 15.8924 4.10746C15.1186 3.33364 14.1999 2.71981 13.1889 2.30102C12.1778 1.88224 11.0942 1.66669 9.99984 1.66669ZM9.99984 16.6667C8.6813 16.6667 7.39237 16.2757 6.29604 15.5432C5.19971 14.8106 4.34523 13.7694 3.84064 12.5512C3.33606 11.3331 3.20404 9.99263 3.46127 8.69942C3.71851 7.40621 4.35345 6.21833 5.2858 5.28598C6.21815 4.35363 7.40603 3.71869 8.69924 3.46145C9.99245 3.20422 11.3329 3.33624 12.5511 3.84082C13.7692 4.34541 14.8104 5.19989 15.543 6.29622C16.2755 7.39255 16.6665 8.68148 16.6665 10C16.6665 11.7681 15.9641 13.4638 14.7139 14.7141C13.4636 15.9643 11.768 16.6667 9.99984 16.6667ZM9.99984 5.83335C9.56073 5.83307 9.12929 5.94845 8.74893 6.16789C8.36858 6.38732 8.05273 6.70307 7.83317 7.08335C7.77288 7.1782 7.73239 7.28427 7.71415 7.39517C7.69591 7.50607 7.70029 7.61951 7.72703 7.72868C7.75377 7.83784 7.80231 7.94047 7.86974 8.03038C7.93717 8.1203 8.0221 8.19565 8.1194 8.25189C8.2167 8.30814 8.32438 8.34412 8.43595 8.35767C8.54752 8.37122 8.66068 8.36207 8.76862 8.33075C8.87656 8.29944 8.97705 8.24661 9.06405 8.17545C9.15104 8.1043 9.22275 8.01627 9.27484 7.91669C9.34826 7.78952 9.45398 7.68401 9.5813 7.61084C9.70861 7.53767 9.853 7.49944 9.99984 7.50002C10.2209 7.50002 10.4328 7.58782 10.5891 7.7441C10.7454 7.90038 10.8332 8.11234 10.8332 8.33335C10.8332 8.55437 10.7454 8.76633 10.5891 8.92261C10.4328 9.07889 10.2209 9.16669 9.99984 9.16669C9.77883 9.16669 9.56687 9.25449 9.41059 9.41077C9.25431 9.56705 9.16651 9.77901 9.16651 10V10.8334C9.16651 11.0544 9.25431 11.2663 9.41059 11.4226C9.56687 11.5789 9.77883 11.6667 9.99984 11.6667C10.2209 11.6667 10.4328 11.5789 10.5891 11.4226C10.7454 11.2663 10.8332 11.0544 10.8332 10.8334V10.6834C11.3843 10.4834 11.8476 10.096 12.1421 9.58908C12.4367 9.08211 12.5436 8.48776 12.4443 7.90993C12.3451 7.33209 12.0458 6.80754 11.599 6.42795C11.1522 6.04836 10.5861 5.8379 9.99984 5.83335Z" fill="#2E775A"/>
</g>
</svg>
