<svg width="48" height="48" viewBox="0 0 48 48" fill="none" xmlns="http://www.w3.org/2000/svg">
<path d="M35.3695 14.8186V9.29764C35.3695 5.09921 33.3023 3 29.168 3H18.832C14.6977 3 12.6305 5.09921 12.6305 9.29764V14.6716M8 21.9349V32.368C8 36.1886 8 36.1886 11.5556 38.6236L21.3333 44.3545C22.801 45.2152 25.199 45.2152 26.6667 44.3545L36.4444 38.6236C40 36.1886 40 36.1886 40 32.368V21.9349C40 18.1143 40 18.1143 36.4444 15.6792L26.6667 9.94839C25.199 9.08772 22.801 9.08772 21.3333 9.94839L11.5556 15.6792C8 18.1143 8 18.1143 8 21.9349Z" stroke="#254B77" stroke-width="2" stroke-linecap="round" stroke-linejoin="round"/>
</svg>
