<svg width="48" height="48" viewBox="0 0 48 48" fill="none" xmlns="http://www.w3.org/2000/svg">
<path d="M22 25.3694V22.6306C22 22.4633 22.0664 22.3029 22.1847 22.1847C22.3029 22.0664 22.4633 22 22.6306 22H25.3694C25.5367 22 25.6971 22.0664 25.8153 22.1847C25.9336 22.3029 26 22.4633 26 22.6306V25.3694C26 25.5367 25.9336 25.6971 25.8153 25.8153C25.6971 25.9336 25.5367 26 25.3694 26H22.6306C22.4633 26 22.3029 25.9336 22.1847 25.8153C22.0664 25.6971 22 25.5367 22 25.3694Z" fill="#2DB080"/>
<path d="M12.3354 31.9898V16.0114C12.3354 15.0357 12.723 14.1 13.4127 13.4101C14.1025 12.7202 15.0381 12.3326 16.0135 12.3326H31.9892C32.9647 12.3326 33.9002 12.7202 34.59 13.4101C35.2797 14.1 35.6673 15.0357 35.6673 16.0114V31.9898C35.6673 32.9655 35.2797 33.9012 34.59 34.5911C33.9002 35.281 32.9647 35.6685 31.9892 35.6685H16.0135C15.0381 35.6685 14.1025 35.281 13.4127 34.5911C12.723 33.9012 12.3354 32.9655 12.3354 31.9898ZM33.6674 16.003C33.6674 15.7837 33.6242 15.5665 33.5403 15.3639C33.4564 15.1613 33.3334 14.9771 33.1783 14.822C33.0232 14.667 32.8391 14.5439 32.6365 14.46C32.4339 14.3761 32.2168 14.3329 31.9975 14.3329H16.0052C15.5623 14.3329 15.1376 14.5088 14.8244 14.822C14.5113 15.1353 14.3353 15.5601 14.3353 16.003V31.9981C14.3353 32.2175 14.3785 32.4347 14.4624 32.6373C14.5464 32.8399 14.6694 33.024 14.8244 33.1791C14.9795 33.3342 15.1636 33.4573 15.3662 33.5412C15.5688 33.6251 15.7859 33.6683 16.0052 33.6683H31.9975C32.2168 33.6683 32.4339 33.6251 32.6365 33.5412C32.8391 33.4573 33.0232 33.3342 33.1783 33.1791C33.3334 33.024 33.4564 32.8399 33.5403 32.6373C33.6242 32.4347 33.6674 32.2175 33.6674 31.9981V16.003Z" fill="#2DB080"/>
<path d="M15.0022 6.94789C15.0061 6.01279 15.0005 5.07852 14.9855 4.14508C14.9614 2.69076 16.9737 2.62075 16.9879 3.9984C16.9973 4.97795 17.0029 5.94417 17.0046 6.89705C17.0046 6.92402 17.0153 6.94988 17.0343 6.96895C17.0534 6.98802 17.0792 6.99873 17.1062 6.99873H20.2927C20.3221 6.99873 20.3368 6.98401 20.3368 6.95456C20.3374 6.0089 20.331 5.06546 20.3177 4.12425C20.3104 3.61308 20.5238 3.26276 20.9576 3.0733C21.4468 2.85994 22.1009 3.12997 22.275 3.65503C22.315 3.7756 22.335 3.99257 22.335 4.30593C22.335 5.16492 22.335 6.03473 22.335 6.91539C22.335 6.93749 22.3438 6.95869 22.3594 6.97432C22.3751 6.98995 22.3963 6.99873 22.4184 6.99873H25.6257C25.6534 6.99873 25.6673 6.98484 25.6673 6.95706C25.669 6.05196 25.6693 5.1488 25.6682 4.24759C25.6682 3.96701 25.6929 3.76254 25.7423 3.63419C26.1273 2.63575 27.633 2.87744 27.6489 3.97756C27.6622 4.94489 27.6697 5.92472 27.6714 6.91705C27.6714 6.93872 27.6799 6.95949 27.695 6.97481C27.7102 6.99012 27.7307 6.99873 27.7522 6.99873H30.9595C30.9705 6.99873 30.9811 6.99434 30.9889 6.98652C30.9967 6.97871 31.0011 6.96811 31.0011 6.95706C31.0017 5.97751 31.0017 4.99129 31.0011 3.9984C31.0003 3.22165 31.8602 2.74826 32.5219 3.14581C32.9393 3.39583 33.0002 3.77171 33.001 4.27093C33.001 5.15825 33.001 6.04168 33.001 6.92122C33.001 6.94178 33.0092 6.96149 33.0237 6.97603C33.0382 6.99056 33.0579 6.99873 33.0785 6.99873C35.2589 6.99873 37.4435 6.99873 39.6322 6.99873C40.0317 6.99873 40.3122 7.04012 40.4739 7.12291C40.9213 7.35294 41.0005 7.75131 41.0005 8.25887C41.0005 10.4719 41.0005 12.6894 41.0005 14.9113C41.0005 14.9345 41.0097 14.9567 41.0261 14.9731C41.0425 14.9896 41.0648 14.9988 41.088 14.9988C42.0368 14.9999 42.9937 15.0004 43.9586 15.0004C45.3269 15.0004 45.3744 17.0032 43.8753 16.9998C42.9309 16.9982 41.9865 16.9987 41.0421 17.0015C41.0144 17.0015 41.0005 17.0151 41.0005 17.0423V20.2502C41.0005 20.261 41.0026 20.2718 41.0068 20.2818C41.0109 20.2918 41.017 20.3009 41.0246 20.3085C41.0323 20.3162 41.0414 20.3223 41.0514 20.3264C41.0614 20.3306 41.0721 20.3327 41.083 20.3327C41.9124 20.3344 42.7468 20.3344 43.5862 20.3327C43.9867 20.3321 44.2592 20.361 44.4036 20.4194C45.276 20.7694 45.1452 22.1354 44.2003 22.3154C44.1397 22.3271 43.9084 22.3329 43.5062 22.3329C42.6851 22.3324 41.8638 22.3329 41.0421 22.3346C41.0144 22.3346 41.0005 22.3485 41.0005 22.3763V25.5849C41.0005 25.6068 41.0092 25.6278 41.0246 25.6433C41.0401 25.6588 41.0611 25.6674 41.083 25.6674C41.9496 25.6669 42.8201 25.6672 43.6945 25.6683C44.0517 25.6688 44.3053 25.705 44.4553 25.7766C45.4085 26.2317 45.0269 27.6668 43.9586 27.6677C42.9781 27.6677 41.9996 27.6677 41.023 27.6677C41.017 27.6677 41.0113 27.67 41.0071 27.6743C41.0029 27.6785 41.0005 27.6842 41.0005 27.6902V30.9172C41.0005 30.9393 41.0094 30.9605 41.0251 30.9761C41.0409 30.9918 41.0623 31.0005 41.0846 31.0005C41.9251 31.0016 42.7718 31.0019 43.6245 31.0014C43.99 31.0008 44.2381 31.023 44.3686 31.068C45.2094 31.3572 45.1935 32.6399 44.3403 32.9407C44.2281 32.9802 44.0406 33.0002 43.7778 33.0008C42.8667 33.0024 41.9585 33.0024 41.053 33.0008C41.018 33.0008 41.0005 33.0183 41.0005 33.0533C41.0005 35.2435 41.0005 37.4368 41.0005 39.6332C41.0005 40.0332 40.9588 40.3138 40.8755 40.4749C40.6505 40.9125 40.2655 41.0016 39.7681 41.0016C37.526 41.0027 35.2878 41.003 33.0535 41.0025C33.0185 41.0025 33.001 41.02 33.001 41.055C33.0016 41.9606 33.0013 42.8691 33.0002 43.7803C32.9996 44.052 32.9732 44.2523 32.921 44.3812C32.5044 45.4121 31.0011 45.0746 31.0011 43.9611C31.0017 42.996 31.0014 42.0373 31.0003 41.085C31.0003 41.0631 30.9916 41.0421 30.9761 41.0266C30.9607 41.0112 30.9397 41.0025 30.9178 41.0025H27.6905C27.6854 41.0025 27.6806 41.0046 27.677 41.0083C27.6734 41.0121 27.6714 41.0172 27.6714 41.0225C27.6686 42.0076 27.663 42.9941 27.6547 43.982C27.6514 44.4115 27.4686 44.7176 27.1064 44.9004C26.6206 45.1446 25.934 44.9079 25.7423 44.3845C25.6929 44.2495 25.6682 44.0061 25.6682 43.6544C25.6687 42.7949 25.6684 41.9454 25.6673 41.1058C25.6673 41.0369 25.6329 41.0025 25.564 41.0025H22.3775C22.3498 41.0025 22.3359 41.0164 22.3359 41.0441C22.3342 41.9281 22.3336 42.8104 22.3342 43.6911C22.3348 44.0461 22.295 44.3031 22.215 44.462C21.8492 45.1921 20.7768 45.1679 20.4385 44.4303C20.3702 44.2814 20.3357 44.0472 20.3352 43.7278C20.3346 42.8571 20.3346 41.9765 20.3352 41.0858C20.3352 41.0637 20.3264 41.0425 20.3108 41.0269C20.2951 41.0112 20.2739 41.0025 20.2518 41.0025H17.0454C17.0176 41.0025 17.0037 41.0161 17.0037 41.0433C16.9998 42.0251 16.9998 43.0044 17.0037 43.9811C17.0087 45.2871 15.038 45.3479 15.0205 44.0236C15.0077 43.058 15.0008 42.0793 14.9997 41.0875C14.9997 41.0649 14.9907 41.0433 14.9748 41.0274C14.9588 41.0114 14.9372 41.0025 14.9147 41.0025C12.7504 41.0025 10.5794 41.0025 8.40178 41.0025C7.98792 41.003 7.70016 40.9627 7.5385 40.8816C7.0952 40.6591 7.00354 40.2691 7.00271 39.7673C7.00271 37.5332 7.00271 35.306 7.00271 33.0858C7.00271 33.0634 6.99384 33.042 6.97806 33.0262C6.96227 33.0105 6.94087 33.0016 6.91854 33.0016C6.0636 33.0021 5.20366 33.0019 4.33871 33.0008C3.96929 33.0008 3.70931 32.9658 3.55876 32.8957C2.78715 32.5374 2.83381 31.3689 3.66459 31.0647C3.77847 31.023 3.97901 31.0022 4.26622 31.0022C5.16449 31.0011 6.06277 31.0008 6.96104 31.0014C6.97209 31.0014 6.98269 30.997 6.9905 30.9892C6.99832 30.9813 7.00271 30.9707 7.00271 30.9597V27.751C7.00271 27.7291 6.99393 27.7081 6.9783 27.6927C6.96267 27.6772 6.94148 27.6685 6.91938 27.6685C6.09888 27.6674 5.27365 27.6674 4.44371 27.6685C4.03262 27.6691 3.75597 27.6418 3.61376 27.5868C2.80881 27.2751 2.79881 26.07 3.64709 25.7375C3.76542 25.6913 3.96374 25.6683 4.24205 25.6683C5.1481 25.6688 6.05443 25.6683 6.96104 25.6666C6.98882 25.6666 7.00271 25.6527 7.00271 25.6249V22.4188C7.00271 22.3973 6.99419 22.3768 6.97903 22.3616C6.96387 22.3464 6.94331 22.3379 6.92188 22.3379C5.97027 22.334 5.01117 22.3265 4.04457 22.3154C3.50627 22.3087 3.16879 22.0612 3.03213 21.5728C2.89714 21.0911 3.20212 20.5636 3.67292 20.3944C3.78458 20.3544 3.97901 20.3344 4.25622 20.3344C5.1656 20.3333 6.07388 20.333 6.98104 20.3335C6.98679 20.3335 6.9923 20.3312 6.99636 20.3272C7.00042 20.3231 7.00271 20.3176 7.00271 20.3119V17.0823C7.00271 17.0602 6.99393 17.039 6.9783 17.0234C6.96267 17.0078 6.94148 16.999 6.91938 16.999C6.0311 17.0007 5.14394 17.0004 4.25788 16.9982C3.95013 16.9976 3.72875 16.9682 3.59376 16.9098C2.79048 16.5623 2.82964 15.3371 3.65792 15.0613C3.78125 15.0202 4.01346 14.9996 4.35455 14.9996C5.23004 15.0002 6.10415 14.9999 6.97687 14.9988C6.98016 14.9988 6.98341 14.9981 6.98644 14.9969C6.98947 14.9956 6.99223 14.9938 6.99455 14.9915C6.99687 14.9891 6.99871 14.9864 6.99997 14.9833C7.00123 14.9803 7.00187 14.9771 7.00187 14.9738C7.00354 12.8046 7.00326 10.6339 7.00104 8.46139C7.00048 8.00578 7.0427 7.68992 7.1277 7.51379C7.29491 7.16653 7.60739 6.99373 8.06514 6.9954C10.3617 7.00317 12.6582 7.00317 14.9547 6.9954C14.9858 6.99484 15.0016 6.97901 15.0022 6.94789ZM9.0634 8.99895C9.04727 8.99895 9.0318 9.00536 9.02039 9.01677C9.00898 9.02818 9.00257 9.04365 9.00257 9.05979V38.9414C9.00257 38.9575 9.00898 38.973 9.02039 38.9844C9.0318 38.9958 9.04727 39.0022 9.0634 39.0022H38.9398C38.9559 39.0022 38.9714 38.9958 38.9828 38.9844C38.9942 38.973 39.0006 38.9575 39.0006 38.9414V9.05979C39.0006 9.04365 38.9942 9.02818 38.9828 9.01677C38.9714 9.00536 38.9559 8.99895 38.9398 8.99895H9.0634Z" fill="#254B77"/>
</svg>
