<svg width="48" height="48" viewBox="0 0 48 48" fill="none" xmlns="http://www.w3.org/2000/svg">
<path d="M35.9832 36.3104C35.9821 36.3019 35.9845 36.2932 35.99 36.2862C38.3448 33.5686 39.7124 29.7413 39.9609 26.2539C39.987 25.8818 40 25.3264 40 24.5877C39.9989 22.5949 39.9943 20.6024 39.9864 18.6102C39.9447 7.76892 28.8473 0.191798 18.4104 3.99494C12.5613 6.12603 8.46447 11.4979 8.04066 17.5913C8.01626 17.9462 8.0035 18.501 8.00236 19.2558C7.99953 21.162 7.99924 23.0679 8.00151 24.9735C8.00747 28.8874 9.36315 33.2571 12.0013 36.2712C12.0074 36.2783 12.0119 36.2865 12.0144 36.2953C12.0169 36.3041 12.0174 36.3132 12.0158 36.3221C11.6238 38.6387 11.2289 40.9564 10.8312 43.2752C10.7489 43.7556 10.7327 44.0869 10.7827 44.2691C10.9324 44.8148 11.4107 44.9989 11.9749 44.9989C20.0614 45 28.1475 45.0003 36.2334 44.9997C36.8895 44.9997 37.3457 44.4224 37.2376 43.7726C36.8228 41.2849 36.4047 38.7975 35.9832 36.3104ZM26.0849 5.16379C32.3757 6.11437 37.281 11.113 37.8937 17.3622C37.9312 17.7437 37.951 18.2989 37.9533 19.0276C37.959 21.0959 37.9607 23.1645 37.9584 25.2334C37.9584 25.7294 37.9209 26.2567 37.8461 26.8155C37.4605 29.6963 36.3814 32.9005 34.373 35.0907C34.0573 35.4348 33.8148 35.7455 33.8862 36.1679C34.2715 38.4384 34.6576 40.7064 35.0445 42.9719C35.045 42.9754 35.0447 42.9789 35.0438 42.9822C35.0428 42.9856 35.0411 42.9887 35.0388 42.9913C35.0366 42.9939 35.0338 42.996 35.0306 42.9974C35.0275 42.9988 35.0241 42.9995 35.0207 42.9994H12.9817C12.9778 42.9995 12.974 42.9987 12.9705 42.9972C12.967 42.9956 12.9639 42.9933 12.9614 42.9905C12.9589 42.9876 12.957 42.9842 12.956 42.9806C12.9549 42.977 12.9547 42.9732 12.9553 42.9694C13.323 40.8139 13.6889 38.6664 14.0531 36.527C14.1391 36.0213 14.151 35.6472 13.814 35.2882C11.4779 32.8038 10.3342 29.2231 10.0738 25.919C10.059 25.7324 10.0513 25.5455 10.0508 25.3583C10.0451 23.1162 10.0454 20.8737 10.0516 18.631C10.0746 10.3357 17.6734 3.8933 26.0849 5.16379Z" fill="#254B77"/>
<path d="M12.1118 19.215C12.3893 22.0975 14.556 24.4152 17.4529 24.9101C17.816 24.9717 18.3813 25.0029 19.149 25.0034C22.603 25.0045 26.0567 25.0048 29.5102 25.0042C32.6556 25.0042 35.2971 22.704 35.8341 19.6732C35.9465 19.0406 35.9439 18.4432 35.8265 17.8812C35.5414 16.5115 34.3823 15.4227 33.0326 15.1136C32.7205 15.0419 32.1563 15.0061 31.3399 15.0061C26.1702 15.0072 21.0002 15.0075 15.83 15.0069C14.7236 15.0069 13.6999 15.481 12.9824 16.3049C12.292 17.0975 12.0018 18.0675 12.1118 19.215ZM33.8232 19.2883C33.5049 21.416 31.6479 23.0023 29.4251 23.0031C26.0709 23.0048 22.7167 23.0053 19.3626 23.0048C18.5405 23.0042 17.9748 22.9742 17.6656 22.9148C15.7772 22.5491 14.3373 20.9637 14.1517 19.09C14.0632 18.1969 14.3543 17.4379 15.2317 17.1197C15.4393 17.0442 15.744 17.0064 16.1457 17.0064C21.3818 17.007 26.6181 17.007 31.8547 17.0064C32.2547 17.0064 32.5591 17.0442 32.7679 17.1197C33.7287 17.4688 33.9678 18.3235 33.8232 19.2883Z" fill="#2DB080"/>
</svg>
