<svg width="48" height="48" viewBox="0 0 48 48" fill="none" xmlns="http://www.w3.org/2000/svg">
<path d="M31.8962 25.1279C32.3286 25.5607 33.236 26.2038 32.9494 26.9669C32.8816 27.1487 32.6686 27.4181 32.3103 27.7751C31.3549 28.7264 30.404 29.6777 29.4575 30.6291C29.453 30.6336 29.4494 30.6391 29.4469 30.645C29.4445 30.651 29.4433 30.6574 29.4434 30.6639C29.4434 30.6703 29.4448 30.6767 29.4474 30.6826C29.45 30.6885 29.4537 30.6938 29.4584 30.6983C29.9241 31.1495 30.5981 31.6566 30.2474 32.398C30.1868 32.5259 30.0349 32.7119 29.7916 32.956C28.7901 33.9574 27.7898 34.9582 26.7905 35.9585C26.7666 35.9829 26.7666 36.0071 26.7905 36.031C27.3687 36.6059 27.9484 37.1861 28.5294 37.7716C28.7477 37.9918 28.8835 38.1661 28.9368 38.2945C29.1484 38.8058 28.876 39.388 28.3619 39.599C27.8645 39.8033 27.4879 39.5573 27.1138 39.1803C26.0929 38.1528 25.0686 37.1286 24.041 36.1077C24.0194 36.0861 23.9977 36.0861 23.976 36.1077C22.0553 38.0243 20.1395 39.9415 18.2288 41.8591C17.6972 42.3929 17.1473 42.5497 16.5533 41.9542C15.9356 41.3343 15.3185 40.7163 14.702 40.1002C14.6988 40.097 14.6951 40.0944 14.6909 40.0926C14.6867 40.0908 14.6822 40.0899 14.6776 40.0899C14.6731 40.0899 14.6685 40.0908 14.6642 40.0926C14.66 40.0944 14.6561 40.097 14.6528 40.1002C13.1375 41.6187 11.6239 43.1399 10.112 44.664C9.14383 45.6398 7.69244 44.2753 8.65143 43.3062C10.1828 41.7571 11.7128 40.2159 13.2414 38.6824C13.2472 38.6763 13.2505 38.6683 13.2505 38.66C13.2505 38.6517 13.2472 38.6439 13.2414 38.6382L9.36796 34.76C9.36528 34.7571 9.36204 34.7549 9.35844 34.7533C9.35483 34.7518 9.35093 34.751 9.34697 34.751C9.343 34.751 9.33906 34.7518 9.33536 34.7533C9.33167 34.7549 9.3283 34.7571 9.32547 34.76C7.80075 36.2862 6.27576 37.8125 4.75049 39.3387C3.93398 40.1561 2.61089 39.2378 3.10913 38.2345C3.16079 38.1305 3.2866 37.9785 3.48656 37.7783C4.96073 36.3015 6.43268 34.8278 7.9024 33.3572C7.90668 33.3529 7.91008 33.3478 7.9124 33.3422C7.91472 33.3367 7.91591 33.3307 7.91591 33.3246C7.91591 33.3186 7.91472 33.3126 7.9124 33.307C7.91008 33.3014 7.90668 33.2964 7.9024 33.2921C7.33417 32.7255 6.76706 32.1584 6.20105 31.5907C5.93666 31.3255 5.77724 31.1072 5.72281 30.936C5.56451 30.4398 5.80613 30.117 6.17189 29.7517C8.08042 27.8407 9.98812 25.931 11.895 24.0228C11.8997 24.018 11.9035 24.0122 11.9061 24.006C11.9087 23.9997 11.91 23.993 11.91 23.9863C11.91 23.9795 11.9087 23.9729 11.9061 23.9667C11.9035 23.9605 11.8997 23.9549 11.895 23.9502C10.8157 22.866 9.73511 21.774 8.65309 20.6742C8.34982 20.3656 8.26872 20.0164 8.4098 19.6267C8.58477 19.1404 9.20716 18.836 9.69956 19.0412C9.83232 19.0968 10.0078 19.2333 10.2261 19.4507C10.8138 20.0356 11.397 20.6189 11.9758 21.2005C11.9853 21.21 11.9982 21.2153 12.0116 21.2153C12.0251 21.2153 12.0379 21.21 12.0475 21.2005C13.0623 20.1846 14.0754 19.1705 15.0869 18.158C15.3374 17.9072 15.5476 17.7538 15.7176 17.6976C16.4316 17.4591 16.8724 18.1021 17.3206 18.5391C17.3285 18.5466 17.3389 18.5508 17.3496 18.5508C17.3603 18.5508 17.3706 18.5466 17.3781 18.5391C18.4157 17.5005 19.4563 16.4588 20.5 15.4141C21.5148 14.3982 22.1889 15.3924 22.8738 16.0996C22.8776 16.1036 22.8822 16.1068 22.8873 16.1091C22.8924 16.1113 22.8979 16.1125 22.9034 16.1125C22.9089 16.1126 22.9144 16.1116 22.9194 16.1095C22.9245 16.1074 22.9291 16.1044 22.9329 16.1004C26.5683 12.4608 30.1996 8.82613 33.8267 5.19647C34.3455 4.67716 34.7629 4.31186 35.079 4.10057C37.2627 2.6402 40.1547 2.71693 42.3301 4.16229C42.354 4.17841 42.3765 4.17647 42.3976 4.15645C42.6892 3.87844 42.975 3.59349 43.2549 3.30158C44.014 2.51176 45.3579 3.41 44.8771 4.4225C44.8271 4.52703 44.7138 4.66882 44.5372 4.84785C44.2989 5.08916 44.0595 5.32908 43.819 5.56761C43.7979 5.58818 43.7957 5.6107 43.8123 5.63517C44.0217 5.94653 44.1736 6.19229 44.2681 6.37244C45.3837 8.49919 45.2129 11.053 43.8315 12.9837C43.6237 13.2734 43.2522 13.6857 42.7167 14.2206C39.1052 17.8285 35.4983 21.441 31.8962 25.0578C31.8729 25.0812 31.8729 25.1045 31.8962 25.1279ZM24.3651 17.5792L30.3765 23.6183C30.3839 23.6258 30.3928 23.6317 30.4025 23.6357C30.4122 23.6398 30.4226 23.6419 30.4332 23.6419C30.4437 23.6419 30.4541 23.6398 30.4638 23.6357C30.4736 23.6317 30.4824 23.6258 30.4898 23.6183L41.6619 12.4741C42.0753 12.0617 42.4054 11.5738 42.6335 11.0382C42.8615 10.5026 42.983 9.92989 42.991 9.35268C42.999 8.77547 42.8933 8.2051 42.6799 7.67414C42.4666 7.14319 42.1498 6.66204 41.7477 6.25818L41.7469 6.25735C40.9349 5.44162 39.8245 4.99011 38.66 5.00215C37.4955 5.0142 36.3722 5.4888 35.5372 6.32157L24.3651 17.4657C24.3577 17.4732 24.3518 17.482 24.3477 17.4917C24.3437 17.5015 24.3416 17.5119 24.3416 17.5225C24.3416 17.533 24.3437 17.5434 24.3477 17.5532C24.3518 17.5629 24.3577 17.5717 24.3651 17.5792ZM30.5747 26.6817C30.5814 26.675 30.5852 26.6659 30.5852 26.6564C30.5852 26.6469 30.5814 26.6377 30.5747 26.631L21.3746 17.4216C21.3679 17.4149 21.3588 17.4111 21.3493 17.4111C21.3398 17.4111 21.3307 17.4149 21.324 17.4216L18.7871 19.9611C18.7804 19.9678 18.7766 19.9769 18.7766 19.9864C18.7766 19.9959 18.7804 20.005 18.7871 20.0118L27.9872 29.2212C27.9939 29.2279 28.003 29.2317 28.0125 29.2317C28.022 29.2317 28.0311 29.2279 28.0379 29.2212L30.5747 26.6817ZM16.0462 20.0944C16.0372 20.0853 16.0249 20.0803 16.0121 20.0803C15.9992 20.0803 15.987 20.0853 15.9779 20.0944L13.4587 22.6162C13.4496 22.6252 13.4446 22.6375 13.4446 22.6504C13.4446 22.6632 13.4496 22.6755 13.4587 22.6846L25.3088 34.5466C25.3178 34.5557 25.3301 34.5608 25.3429 34.5608C25.3558 34.5608 25.368 34.5557 25.3771 34.5466L27.8963 32.0249C27.9054 32.0158 27.9104 32.0035 27.9104 31.9907C27.9104 31.9778 27.9054 31.9655 27.8963 31.9565L16.0462 20.0944ZM13.3682 25.4204C13.3625 25.4146 13.3546 25.4113 13.3464 25.4113C13.3383 25.4113 13.3304 25.4146 13.3246 25.4204L8.11543 30.6348C8.10965 30.6406 8.1064 30.6485 8.1064 30.6567C8.1064 30.6648 8.10965 30.6727 8.11543 30.6785L17.3238 39.8961C17.3295 39.9019 17.3374 39.9052 17.3456 39.9052C17.3537 39.9052 17.3616 39.9019 17.3674 39.8961L22.5766 34.6816C22.5824 34.6759 22.5856 34.668 22.5856 34.6598C22.5856 34.6516 22.5824 34.6438 22.5766 34.638L13.3682 25.4204Z" fill="#254B77"/>
<path d="M38.3848 9.64019C38.6064 9.63352 38.8372 9.63269 39.0372 9.71108C39.8778 10.0439 39.887 11.2707 38.9963 11.5835C38.6939 11.6894 38.1698 11.6385 37.7965 11.6418C37.7697 11.6424 37.7441 11.6531 37.7249 11.6719C35.1759 14.2223 32.6239 16.7691 30.0688 19.3123C29.0682 20.3081 27.7051 18.8561 28.6599 17.9028C31.2111 15.358 33.7604 12.8109 36.3077 10.2615C36.3268 10.2428 36.3379 10.2171 36.3385 10.1898C36.341 9.92626 36.3452 9.66354 36.3377 9.40333C36.3002 8.14396 38.0123 7.88291 38.3165 9.09724C38.3353 9.17175 38.3426 9.33744 38.3381 9.59432C38.3376 9.62601 38.3531 9.6413 38.3848 9.64019Z" fill="#2DB080"/>
<path d="M12.5 29.5L18.5 35.5" stroke="#2DB080" stroke-width="2" stroke-linecap="round"/>
</svg>
