<svg width="48" height="48" viewBox="0 0 48 48" fill="none" xmlns="http://www.w3.org/2000/svg">
<path d="M39.602 22.1608L39.5055 21.971C38.9263 21.5913 38.3471 21.2116 37.5749 21.2116C37.2853 21.2116 36.9957 21.3065 36.6096 21.3065C36.5131 21.3065 36.32 21.4014 36.2235 21.4014C34.9686 21.5913 33.7137 21.4014 32.845 20.9268C32.6519 20.8319 32.4588 20.642 32.2658 20.4522C30.6248 18.9334 29.0803 17.3197 27.4393 15.8009C27.0532 15.4212 26.474 15.1364 25.7983 15.0415C24.833 14.8517 23.8678 14.7567 22.9025 14.5669C22.2268 14.472 21.6476 14.472 21.0684 14.7567C19.1378 12.8583 17.2073 10.9598 15.3732 9.06128C12.7669 6.49833 8.3266 6.30848 5.52726 8.58666C2.72792 10.8648 2.14875 14.9466 4.17586 17.8892C4.46544 18.2689 4.85156 18.7436 5.43073 19.3131C8.71272 22.6355 12.0912 25.9578 15.3732 29.2801C16.0489 29.9446 16.435 30.3243 16.6281 30.6091C17.883 32.4126 17.6899 35.0705 16.0489 36.6842C14.4079 38.298 11.8016 38.5827 9.87106 37.4436C9.58148 37.2538 9.09883 36.8741 8.61619 36.3045L2.14875 29.8497C1.85916 29.5649 1.6661 29.47 1.56957 29.3751C1.18346 29.1852 0.797342 29.2801 0.411226 29.5649C0.121639 29.8497 -0.0714189 30.2294 0.02511 30.6091C0.121639 30.7989 0.218168 31.0837 0.507755 31.3685L6.78214 37.6335C7.45784 38.298 7.94048 38.6777 8.23007 38.9624C9.09883 39.6269 10.1607 40.0066 11.319 40.1964C11.7051 40.2914 12.0912 40.2914 12.4773 40.2914C14.1183 40.2914 15.7593 39.7218 17.1107 38.6777C18.6552 37.4436 19.6205 35.6401 19.717 33.6467C19.8135 32.033 19.3309 30.5142 18.3656 29.1852C18.1726 28.9005 17.6899 28.4258 17.1107 27.7614C13.6357 24.3441 10.1607 20.8319 6.68561 17.4146C5.23767 15.9908 4.85156 13.9973 5.62379 12.0989C6.39602 10.2953 8.13354 9.15621 10.1607 9.15621C11.5121 9.15621 12.6704 9.63083 13.6357 10.5801C15.5663 12.4786 17.4969 14.377 19.3309 16.2755C18.9448 16.94 18.9448 17.5095 19.1378 18.2689C19.2344 19.0283 19.4274 19.7877 19.524 20.5471C19.717 21.4014 19.8135 21.971 20.3927 22.6355C21.9372 24.1542 23.5782 25.768 25.1226 27.2867C25.4122 27.5715 25.5088 27.7614 25.7018 27.9512C26.0879 28.7106 26.281 29.8497 26.1845 30.9888C26.1845 31.1786 26.0879 31.3685 26.0879 31.5583C25.9914 32.2228 25.7983 32.9822 26.281 33.7416L26.474 34.0264C27.1497 35.0705 27.922 36.2096 29.563 36.1147C31.6866 35.9248 33.8102 34.6908 34.7755 33.8365C37.5749 31.7482 40.7603 28.3309 41.1464 24.9136C41.3395 23.3948 40.4707 22.6355 39.602 22.1608ZM29.0803 33.5517C28.7907 33.172 28.5977 32.7923 28.3081 32.4126C28.3081 32.4126 28.3081 32.2228 28.3081 32.1279C28.7907 30.2294 28.5977 28.236 27.7289 26.7172L31.6866 22.8253C33.3276 23.6796 35.3547 23.8695 37.3818 23.3948C37.5749 23.3948 38.3471 23.8695 38.5402 24.0593L38.7332 24.2492C39.0228 24.439 38.5402 26.0527 37.961 27.0969C36.8026 29.0903 34.9686 30.9888 32.845 32.4126C31.6866 33.172 30.4317 33.7416 29.4664 33.7416C29.2734 33.7416 29.1769 33.7416 29.0803 33.5517ZM29.9491 21.4964L26.281 25.1035C24.833 23.6796 23.4816 22.3507 22.0337 21.0217C22.0337 21.0217 22.0337 21.0217 22.0337 20.9268C21.8407 19.8826 21.6476 18.8385 21.4545 17.7943C21.358 17.5095 21.4545 17.4146 21.7441 17.2248L21.8407 17.1298C22.0337 16.94 22.1302 16.8451 22.3233 16.94L25.7018 17.5095C25.7018 17.5095 25.7983 17.5095 25.7983 17.6045C27.1497 18.7436 28.5977 20.0725 29.9491 21.4964Z" fill="#254B77"/>
<path d="M38.4436 37.4436C41.0499 37.4436 43.27 35.4502 43.3666 32.8872C43.3666 32.6025 43.3666 32.3177 43.27 32.1278C43.077 31.7482 42.6909 31.5583 42.3047 31.5583C41.8221 31.5583 41.436 31.7482 41.2429 32.1278C41.0499 32.4126 41.0499 32.6025 41.0499 32.8872V32.9822C40.9533 34.406 39.6985 35.1654 38.5401 35.2603C38.2505 35.2603 38.0575 35.3553 37.9609 35.3553C37.4783 35.5451 37.1887 36.1147 37.3818 36.5893C37.4783 37.0639 37.9609 37.4436 38.4436 37.4436Z" fill="#2DB080"/>
<path d="M47.6138 31.8431C47.3242 31.5583 46.9381 31.4634 46.6485 31.5583C46.2624 31.6532 45.9728 31.8431 45.8763 32.1278C45.7798 32.3177 45.7798 32.5075 45.6833 32.8872C45.5867 36.6842 42.4978 39.6269 38.6366 39.7218C38.347 39.7218 38.154 39.7218 38.0575 39.8167C37.5748 40.0066 37.2852 40.4812 37.3818 41.0507C37.4783 41.6203 37.9609 42 38.5401 42C43.5596 42 47.7104 38.203 47.9999 33.3619V33.172C47.9999 32.6025 47.9999 32.2228 47.6138 31.8431Z" fill="#2DB080"/>
</svg>
