<svg width="48" height="48" viewBox="0 0 48 48" fill="none" xmlns="http://www.w3.org/2000/svg">
<path d="M15.6637 10.9664C15.6637 10.9743 15.6669 10.9819 15.6725 10.9876C15.6782 10.9932 15.6858 10.9964 15.6937 10.9964C24.9819 10.9964 34.2641 10.9964 43.5403 10.9964C43.9778 10.9964 44.2744 11.0317 44.43 11.1023C44.8959 11.3114 45 11.7201 45 12.2339C45 22.6861 45 33.1387 45 43.5915C45 44.0128 44.9591 44.3047 44.8772 44.4672C44.6503 44.9191 44.2481 44.9997 43.7381 44.9997C32.4788 45.0003 21.2194 45 9.96 44.9987C9.12813 44.9987 8.50625 44.9578 8.09437 44.8759C5.58375 44.3762 3.57656 42.3615 3.10875 39.8367C3.03625 39.4448 3 38.822 3 37.9682C3 28.671 3 19.3738 3 10.0766C3 9.22224 3.03469 8.59941 3.10406 8.20814C3.57281 5.56618 5.72531 3.45673 8.39437 3.06766C11.8088 2.56983 14.9859 4.87147 15.5728 8.25221C15.7116 9.05567 15.6684 10.0701 15.6637 10.9664ZM11.7066 5.70493C8.80781 3.81862 5.00437 5.89338 5.0025 9.39693C4.99938 17.6078 4.9975 25.8165 4.99687 34.0231C4.99703 34.0273 4.9984 34.0315 5.00082 34.035C5.00325 34.0385 5.00662 34.0413 5.01056 34.043C5.01449 34.0446 5.01882 34.0451 5.02304 34.0444C5.02726 34.0437 5.03119 34.0419 5.03438 34.039C7.50656 31.7767 11.1506 31.7608 13.6247 34.0324C13.6283 34.0357 13.6328 34.0378 13.6376 34.0386C13.6425 34.0393 13.6474 34.0387 13.6518 34.0367C13.6563 34.0347 13.6601 34.0315 13.6628 34.0274C13.6654 34.0233 13.6669 34.0186 13.6669 34.0137C13.6675 26.3528 13.6691 18.7097 13.6716 11.0845C13.6716 10.1779 13.7325 9.1138 13.5422 8.31315C13.2772 7.19811 12.6653 6.32871 11.7066 5.70493ZM43.0041 13.0449C43.0041 13.0329 42.9993 13.0215 42.9909 13.013C42.9824 13.0046 42.971 12.9999 42.9591 12.9999H15.7097C15.6978 12.9999 15.6863 13.0046 15.6779 13.013C15.6694 13.0215 15.6647 13.0329 15.6647 13.0449V21.6233C15.6647 21.6352 15.6694 21.6467 15.6779 21.6551C15.6863 21.6635 15.6978 21.6683 15.7097 21.6683H42.9591C42.971 21.6683 42.9824 21.6635 42.9909 21.6551C42.9993 21.6467 43.0041 21.6352 43.0041 21.6233V13.0449ZM43.0031 23.7027C43.0031 23.6983 43.0023 23.6939 43.0006 23.6898C42.9989 23.6857 42.9964 23.682 42.9932 23.6789C42.9901 23.6757 42.9864 23.6732 42.9823 23.6715C42.9782 23.6698 42.9738 23.669 42.9694 23.669H15.6994C15.6949 23.669 15.6906 23.6698 15.6865 23.6715C15.6824 23.6732 15.6786 23.6757 15.6755 23.6789C15.6724 23.682 15.6699 23.6857 15.6682 23.6898C15.6665 23.6939 15.6656 23.6983 15.6656 23.7027V32.298C15.6656 32.3024 15.6665 32.3068 15.6682 32.3109C15.6699 32.315 15.6724 32.3187 15.6755 32.3219C15.6786 32.325 15.6824 32.3275 15.6865 32.3292C15.6906 32.3309 15.6949 32.3318 15.6994 32.3318H42.9694C42.9738 32.3318 42.9782 32.3309 42.9823 32.3292C42.9864 32.3275 42.9901 32.325 42.9932 32.3219C42.9964 32.3187 42.9989 32.315 43.0006 32.3109C43.0023 32.3068 43.0031 32.3024 43.0031 32.298V23.7027ZM15.5391 39.9098C15.2981 41.0592 14.7525 42.1018 13.9556 42.9652C13.9528 42.9684 13.9509 42.9724 13.9502 42.9766C13.9495 42.9808 13.95 42.9851 13.9517 42.9891C13.9533 42.993 13.9561 42.9964 13.9596 42.9988C13.9631 43.0012 13.9673 43.0026 13.9716 43.0027H42.9609C42.9721 43.0027 42.9829 42.9983 42.9908 42.9904C42.9987 42.9825 43.0031 42.9717 43.0031 42.9606V34.3775C43.0031 34.3653 42.9982 34.3536 42.9894 34.345C42.9806 34.3364 42.9687 34.3315 42.9563 34.3315L15.7003 34.3306C15.6904 34.3306 15.6808 34.3346 15.6738 34.3418C15.6668 34.349 15.6628 34.3588 15.6628 34.369C15.6678 35.6653 15.6672 36.965 15.6609 38.2682C15.6572 38.992 15.6166 39.5392 15.5391 39.9098ZM13.6622 38.6657C13.6622 37.5175 13.2061 36.4162 12.3941 35.6043C11.5822 34.7924 10.481 34.3362 9.33281 34.3362C8.18459 34.3362 7.0834 34.7924 6.27148 35.6043C5.45957 36.4162 5.00344 37.5175 5.00344 38.6657C5.00344 39.814 5.45957 40.9152 6.27148 41.7272C7.0834 42.5391 8.18459 42.9952 9.33281 42.9952C10.481 42.9952 11.5822 42.5391 12.3941 41.7272C13.2061 40.9152 13.6622 39.814 13.6622 38.6657Z" fill="#254B77"/>
<path d="M9.33576 39.6727C9.88822 39.6727 10.3361 39.2248 10.3361 38.6723C10.3361 38.1199 9.88822 37.672 9.33576 37.672C8.7833 37.672 8.33545 38.1199 8.33545 38.6723C8.33545 39.2248 8.7833 39.6727 9.33576 39.6727Z" fill="#2DB080"/>
<path d="M18 17.5C18 16.9477 18.4477 16.5 19 16.5H33C33.5523 16.5 34 16.9477 34 17.5C34 18.0523 33.5523 18.5 33 18.5H19C18.4477 18.5 18 18.0523 18 17.5Z" fill="#2DB080"/>
<path d="M18 28C18 27.4477 18.4477 27 19 27H40C40.5523 27 41 27.4477 41 28C41 28.5523 40.5523 29 40 29H19C18.4477 29 18 28.5523 18 28Z" fill="#2DB080"/>
<path d="M18 39C18 38.4477 18.4477 38 19 38H25.5C26.0523 38 26.5 38.4477 26.5 39C26.5 39.5523 26.0523 40 25.5 40H19C18.4477 40 18 39.5523 18 39Z" fill="#2DB080"/>
</svg>
