<svg width="48" height="48" viewBox="0 0 48 48" fill="none" xmlns="http://www.w3.org/2000/svg">
<path d="M38.6757 31.9448C40.4251 30.4113 40.4117 28.2958 38.6891 26.7501C38.6585 26.7226 38.6432 26.6889 38.6432 26.6489L38.6441 21.3764C38.6441 21.3433 38.6562 21.3152 38.6805 21.2921C40.3667 19.6893 40.473 17.6871 38.6872 16.0852C38.6733 16.0728 38.6623 16.0578 38.6547 16.0412C38.6471 16.0246 38.6432 16.0067 38.6432 15.9887L38.6441 12.0519C38.6441 12.0375 38.6471 12.0232 38.6531 12.01C38.659 11.9967 38.6677 11.9848 38.6786 11.9751C39.7903 10.9684 40.3188 9.64583 39.7989 8.2314C39.3105 6.90509 37.7565 5.86747 36.4734 5.27602C34.342 4.29464 32.0019 3.72193 29.6761 3.39949C24.7133 2.71056 19.3972 2.87834 14.5455 4.17185C12.4256 4.73706 9.23897 5.9537 8.2872 8.0655C7.62652 9.53054 8.17996 10.9234 9.32418 11.9723C9.33536 11.9826 9.34426 11.9951 9.35035 12.0087C9.35644 12.0224 9.35959 12.0371 9.35961 12.0519L9.36057 16.0121C9.36059 16.0245 9.35787 16.0367 9.35258 16.048C9.3473 16.0594 9.33957 16.0695 9.32993 16.0777C7.60545 17.585 7.5662 19.7446 9.32036 21.2677C9.34653 21.2902 9.35961 21.3183 9.35961 21.3521L9.36057 26.6508C9.36057 26.6826 9.34876 26.7098 9.32514 26.7323C7.61886 28.3914 7.54034 30.3101 9.32514 31.957C9.3494 31.9795 9.36153 32.007 9.36153 32.0394V35.9987C9.36151 36.0117 9.35878 36.0246 9.35351 36.0366C9.34824 36.0485 9.34054 36.0592 9.33089 36.0681C8.8183 36.5349 8.44998 37.0429 8.22592 37.5922C7.35267 39.7368 9.17194 41.5027 10.9299 42.4259C13.519 43.7851 16.5764 44.4412 19.4767 44.7571C23.3482 45.1789 27.2 45.0514 31.0319 44.3746C32.4388 44.1259 33.8138 43.7629 35.1569 43.2855C37.2634 42.5356 40.5773 40.7725 39.9071 38.0055C39.729 37.2707 39.2416 36.5808 38.67 36.0624C38.6609 36.0545 38.6537 36.0447 38.6487 36.0337C38.6438 36.0227 38.6412 36.0108 38.6412 35.9987L38.6422 32.0188C38.6422 31.9895 38.6534 31.9648 38.6757 31.9448ZM12.507 11.6601C11.6021 11.2543 9.47643 10.0807 10.1994 8.79755C10.6953 7.91646 11.8444 7.27627 12.8019 6.88166C14.1986 6.30614 15.6425 5.88559 17.1336 5.62002C21.362 4.86641 25.6019 4.80517 29.8532 5.4363C31.352 5.65876 32.8158 6.01557 34.2444 6.50673C35.3062 6.87228 38.3578 8.14517 37.9164 9.6327C37.5487 10.8681 35.2718 11.8289 34.1486 12.2085C32.8158 12.659 31.42 12.9952 29.9614 13.217C25.8741 13.8388 21.7897 13.82 17.7081 13.1608C15.9042 12.8693 14.173 12.4072 12.507 11.6601ZM14.7772 21.8292C13.5976 21.4589 9.31174 20.0314 10.1611 18.2261C10.4071 17.704 10.7451 17.5015 11.0822 17.1641C11.2794 16.966 11.3793 16.7145 11.3819 16.4096C11.3915 15.4072 11.402 14.4027 11.4135 13.3961C11.4141 13.3629 11.4298 13.3536 11.4604 13.3679C12.5251 13.8579 13.626 14.2512 14.7628 14.548C20.4284 16.0253 26.6494 16.0149 32.3571 14.7758C33.7257 14.479 35.1214 14.0088 36.5443 13.3651C36.5781 13.3501 36.595 13.3608 36.595 13.397C36.6021 14.3624 36.6002 15.3279 36.5893 16.2933C36.5816 16.9541 36.9848 17.2203 37.4223 17.614C38.5273 18.6057 37.7 19.6752 36.7186 20.3098C35.7295 20.949 34.6341 21.3961 33.508 21.7476C33.1895 21.8476 32.9763 21.9395 32.8684 22.0232C32.0469 22.6634 32.7698 24.0225 33.7627 23.7601C34.5849 23.5426 35.5118 23.1911 36.5433 22.7056C36.5791 22.6887 36.597 22.6996 36.597 22.7384C36.6002 24.0119 36.6005 25.2854 36.5979 26.5589C36.597 27.1091 36.5778 27.4644 36.9091 27.8159C37.3074 28.2395 37.8781 28.5517 37.9432 29.2275C38.0964 30.8256 34.6637 32.0507 33.4582 32.4284C33.1684 32.519 32.9709 32.6078 32.8655 32.6946C32.0545 33.3583 32.7727 34.6855 33.7646 34.4231C34.5964 34.2031 35.5226 33.8519 36.5433 33.3695C36.5772 33.3539 36.5944 33.3645 36.595 33.4014C36.5982 34.215 36.5989 35.0292 36.597 35.844C36.596 36.4402 36.5807 36.906 36.9982 37.2435C37.4635 37.6184 37.9451 38.0655 37.9557 38.6654C37.9786 39.9505 35.4566 41.0706 34.4368 41.4333C32.9316 41.9682 31.3603 42.3538 29.723 42.59C25.9089 43.1399 22.0948 43.1392 18.2807 42.5881C16.7372 42.365 15.2307 41.9995 13.7613 41.4914C12.6965 41.1231 9.34812 39.7761 10.1898 38.1424C10.5603 37.4253 11.4163 37.2107 11.4106 36.3043C11.4036 35.3401 11.4036 34.3731 11.4106 33.4033C11.4106 33.3689 11.4266 33.3592 11.4585 33.3742C12.259 33.7523 13.0827 34.0713 13.9298 34.3312C14.2069 34.4162 14.4165 34.4537 14.5589 34.4437C15.4475 34.3809 15.8276 33.2102 15.12 32.674C15.014 32.594 14.812 32.5094 14.5139 32.42C13.3285 32.0629 9.62197 30.7234 10.1046 29.0166C10.3583 28.1224 11.3962 27.9855 11.3991 27.0257C11.4029 25.596 11.4052 24.1606 11.4058 22.7196C11.4057 22.7161 11.4066 22.7125 11.4084 22.7094C11.4101 22.7063 11.4126 22.7037 11.4157 22.7018C11.4188 22.6999 11.4223 22.6988 11.426 22.6986C11.4296 22.6985 11.4332 22.6993 11.4365 22.7009C12.2542 23.0889 13.099 23.4145 13.971 23.6776C14.2161 23.7519 14.4009 23.7866 14.5254 23.7816C15.6524 23.7357 15.8343 22.161 14.7772 21.8292Z" fill="#254B77"/>
<path d="M30.8117 10.3423C30.248 10.3423 29.791 9.89491 29.791 9.34307C29.791 8.79123 30.248 8.34388 30.8117 8.34388C31.3754 8.34388 31.8324 8.79123 31.8324 9.34307C31.8324 9.89491 31.3754 10.3423 30.8117 10.3423Z" fill="#254B77"/>
<path d="M29.2731 31.9288C31.0971 27.963 27.606 23.8547 24.9968 21.2387C24.7172 20.9575 24.4769 20.7884 24.2758 20.7316C23.8858 20.621 23.5127 20.7409 23.1565 21.0915C21.3985 22.8227 19.6539 24.868 18.7184 27.1269C17.6144 29.7936 18.3785 32.809 20.8757 34.4118C23.9005 36.3549 27.8138 35.0989 29.2731 31.9288ZM27.7372 29.7074C27.6711 31.9054 25.6498 33.6891 23.3576 33.2767C21.9519 33.0246 20.8173 32.0057 20.418 30.6531C19.63 27.9883 22.266 24.9317 23.9809 23.148C23.9949 23.1336 24.0093 23.1336 24.024 23.148C25.5694 24.7592 27.8081 27.3641 27.7372 29.7074Z" fill="#2DB080"/>
</svg>
