<svg width="42" height="40" viewBox="0 0 42 40" fill="none" xmlns="http://www.w3.org/2000/svg">
<g id="vuesax/linear/award">
<path id="Vector" d="M10.6347 29.8324C10.6578 29.8324 10.6694 29.8204 10.6694 29.7962L10.6657 26.4843C10.6657 26.4544 10.651 26.4395 10.6216 26.4395C10.1219 26.4328 9.69912 26.4375 9.13195 26.4356C5.63236 26.4251 2.62494 28.921 2.08683 32.4456C2.02745 32.8346 1.99777 33.4686 1.99777 34.3475C1.99839 35.8329 1.99808 37.3179 1.99683 38.8026C1.99621 39.0574 1.97214 39.2472 1.92464 39.3717C1.54309 40.3766 0.0281342 40.1039 0.0206344 38.9961C0.00875974 37.4066 0.00188482 35.8173 9.86814e-06 34.2284C-0.000615115 33.3843 0.0284466 32.7507 0.087195 32.3274C0.339688 30.5096 1.07248 28.9071 2.28557 27.5196C2.33745 27.4605 2.36463 27.4087 2.36713 27.3642C2.90587 18.7179 3.44148 10.0713 3.97396 1.42432C4.04052 0.343209 4.28895 0.000953357 5.35205 0C6.87138 0 8.39041 0.000635615 9.90911 0.00190676C10.9244 0.00190676 11.2881 0.27266 11.35 1.28799C11.7681 8.08351 12.1859 14.8765 12.6034 21.6669C12.6039 21.6752 12.6074 21.683 12.6131 21.6886C12.6189 21.6943 12.6265 21.6975 12.6344 21.6975L16.0289 21.6955C16.0376 21.6956 16.0459 21.6923 16.0522 21.6865C16.0585 21.6806 16.0622 21.6726 16.0627 21.6641C16.4783 14.9118 16.8933 8.16328 17.3077 1.4186C17.3714 0.378483 17.6245 0.00286011 18.6567 0.00190676C20.1766 4.36557e-08 21.6966 4.36557e-08 23.2166 0.00190676C24.2572 0.00286011 24.619 0.245013 24.6837 1.29275C25.1018 8.08574 25.5193 14.8765 25.9362 21.665C25.9367 21.6736 25.9403 21.6816 25.9464 21.6874C25.9525 21.6933 25.9606 21.6965 25.969 21.6965H29.3411C29.3755 21.6965 29.3939 21.6787 29.3964 21.6431C29.8114 14.9156 30.2251 8.18838 30.6376 1.4615C30.6873 0.652096 30.8289 0.000953561 31.7335 0.000953561C33.3422 0.000317989 34.9506 0.000635615 36.5587 0.00190676C37.5627 0.00286011 37.9518 0.240246 38.0146 1.26224C38.5496 9.95495 39.0839 18.648 39.6177 27.3413C39.6242 27.4462 39.717 27.5234 39.7817 27.5997C41.0036 29.0405 41.722 30.687 41.937 32.539C41.9814 32.9229 42.0023 33.5575 41.9998 34.4429C41.996 35.9447 41.9914 37.4466 41.9857 38.9484C41.981 40.3194 40.032 40.3365 40.0217 38.9961C40.0117 37.622 40.0052 36.2479 40.002 34.8738C40.0002 33.8035 39.9905 33.1679 39.973 32.9671C39.6467 29.2013 36.614 26.4538 32.9054 26.4366C32.3966 26.434 31.8876 26.435 31.3782 26.4395C31.3482 26.4401 31.3332 26.4557 31.3332 26.4862V29.7915C31.3332 29.8201 31.3473 29.8344 31.3754 29.8344C32.1994 29.8305 33.1782 29.7648 33.9019 29.9497C35.5584 30.374 36.6824 31.906 36.6759 33.6573C36.669 35.3479 36.6646 37.0389 36.6628 38.7301C36.6618 39.2488 36.5634 39.6987 36.0937 39.9008C35.4028 40.1983 34.6809 39.7445 34.6772 38.9723C34.6691 37.3567 34.6666 35.7407 34.6697 34.1245C34.6703 33.5582 34.6259 33.1571 34.5366 32.9213C34.2338 32.1262 33.5766 31.8717 32.7507 31.8669C32.2951 31.8644 31.8398 31.8653 31.3848 31.8698C31.351 31.8704 31.3342 31.8876 31.3342 31.9213C31.3316 34.2646 31.3316 36.607 31.3342 38.9484C31.3348 39.3825 31.1692 39.687 30.8373 39.8618C30.6635 39.9539 30.3786 40 29.9823 40C23.9831 40 17.9839 40 11.9847 40C11.1503 40 10.6657 39.7369 10.6666 38.8054C10.6691 36.5104 10.6688 34.2153 10.6657 31.9203C10.665 31.8872 10.6485 31.8704 10.616 31.8698C10.1585 31.8653 9.70381 31.8644 9.25194 31.8669C8.85883 31.8688 8.55665 31.9155 8.34541 32.0071C7.56543 32.3436 7.33575 32.9928 7.33481 33.8432C7.33231 35.5294 7.33012 37.2152 7.32825 38.9008C7.32543 40.3747 5.31924 40.3213 5.32393 38.9246C5.33018 37.0891 5.33455 35.2539 5.33705 33.419C5.33893 31.661 6.75545 30.1604 8.42603 29.8839C9.04195 29.7819 9.9138 29.8363 10.6347 29.8324ZM5.47111 25.1972C6.64358 24.6608 7.87448 24.3964 9.16382 24.404C9.64318 24.4072 10.1272 24.4078 10.616 24.4059C10.6491 24.4059 10.666 24.3888 10.6666 24.3545C10.6703 23.6595 10.6807 22.9759 10.6375 22.2676C10.225 15.535 9.81099 8.79694 9.39538 2.05353C9.39514 2.04762 9.39256 2.04204 9.38819 2.03795C9.38382 2.03386 9.378 2.03159 9.37194 2.0316H5.97078C5.9619 2.03159 5.95335 2.03504 5.9469 2.04125C5.94044 2.04746 5.93658 2.05595 5.9361 2.06497L4.48864 25.6253C4.48614 25.6596 4.49989 25.6691 4.52989 25.6539C4.83988 25.4944 5.15362 25.3421 5.47111 25.1972ZM22.7291 2.06688C22.7286 2.05735 22.7245 2.04838 22.7177 2.04181C22.7109 2.03525 22.7019 2.03159 22.6925 2.0316H19.3064C19.297 2.03159 19.288 2.03525 19.2811 2.04181C19.2743 2.04838 19.2703 2.05735 19.2698 2.06688L18.0661 21.6574C18.0658 21.6625 18.0666 21.6675 18.0683 21.6722C18.07 21.677 18.0727 21.6813 18.0761 21.6849C18.0795 21.6886 18.0836 21.6915 18.0882 21.6935C18.0928 21.6955 18.0977 21.6965 18.1026 21.6965H23.8972C23.9021 21.6965 23.907 21.6955 23.9116 21.6935C23.9162 21.6915 23.9203 21.6886 23.9237 21.6849C23.9271 21.6813 23.9298 21.677 23.9315 21.6722C23.9332 21.6675 23.934 21.6625 23.9337 21.6574L22.7291 2.06688ZM33.1866 24.4269C34.7597 24.4622 36.1162 24.8941 37.483 25.6672C37.4861 25.6689 37.4895 25.6697 37.493 25.6696C37.4964 25.6695 37.4998 25.6685 37.5027 25.6667C37.5057 25.6649 37.5081 25.6623 37.5097 25.6592C37.5114 25.6561 37.5122 25.6526 37.5121 25.6491L36.0628 2.07355C36.0623 2.06225 36.0574 2.05157 36.0492 2.04375C36.041 2.03593 36.0301 2.03158 36.0187 2.0316H32.6504C32.6197 2.0316 32.6035 2.04686 32.6016 2.07736C32.1841 8.86972 31.7666 15.6624 31.3492 22.4554C31.321 22.9104 31.3185 23.5447 31.3417 24.3583C31.3429 24.3888 31.3585 24.404 31.3885 24.404C31.9898 24.4053 32.5891 24.4129 33.1866 24.4269ZM29.3345 23.7643C29.3345 23.7555 29.3311 23.747 29.3249 23.7407C29.3188 23.7345 29.3104 23.731 29.3017 23.731H12.6972C12.6885 23.731 12.6801 23.7345 12.674 23.7407C12.6678 23.747 12.6644 23.7555 12.6644 23.7643V37.9369C12.6644 37.9458 12.6678 37.9543 12.674 37.9605C12.6801 37.9668 12.6885 37.9703 12.6972 37.9703H29.3017C29.3104 37.9703 29.3188 37.9668 29.3249 37.9605C29.3311 37.9543 29.3345 37.9458 29.3345 37.9369V23.7643Z" fill="#254B77"/>
<path id="Vector_2" d="M21.3641 31.9003C21.366 31.8962 21.3668 31.8916 21.3665 31.8871C21.3662 31.8825 21.3648 31.8781 21.3624 31.8743C21.3599 31.8705 21.3565 31.8673 21.3526 31.8652C21.3486 31.8631 21.3442 31.862 21.3397 31.8622C20.5866 31.8698 19.8325 31.8707 19.0776 31.865C18.2713 31.8593 17.7707 31.1185 18.1448 30.3473C18.7885 29.0183 19.4357 27.6903 20.0863 26.3632C20.4106 25.7006 21.2234 25.5566 21.7344 26.0934C22.1525 26.531 21.9969 27.0153 21.7381 27.5444C21.3706 28.2969 21.0016 29.0485 20.631 29.7991C20.629 29.8027 20.628 29.8068 20.6281 29.811C20.6282 29.8151 20.6293 29.8191 20.6314 29.8227C20.6334 29.8263 20.6364 29.8292 20.64 29.8313C20.6435 29.8333 20.6475 29.8344 20.6516 29.8344C21.4522 29.8318 22.2556 29.8325 23.0618 29.8363C23.5859 29.8391 24.0059 30.3883 23.9834 30.8783C23.9752 31.0537 23.8843 31.3178 23.7106 31.6705C23.1687 32.7726 22.6268 33.8744 22.085 34.9758C21.92 35.3114 21.8144 35.5084 21.7681 35.5669C21.2009 36.281 20.0094 35.8615 19.9982 34.9415C19.9957 34.7762 20.0572 34.5668 20.1828 34.3132C20.581 33.5073 20.9747 32.703 21.3641 31.9003Z" fill="#2DB080"/>
</g>
</svg>
