<svg width="135" height="48" viewBox="0 0 135 48" fill="none" xmlns="http://www.w3.org/2000/svg">
<g id="logo" clip-path="url(#clip0_160_3615)">
<path id="Vector" d="M19.2561 0.135977C26.7523 1.35977 33.4232 7.61473 32.1853 12.238C-0.343977 7.00283 2.40692 24.4759 2.40692 24.4759C-7.2212 0.883852 14.6484 -0.611899 19.2561 0.135977ZM29.7095 5.23513C29.7095 5.23513 46.2836 11.2181 26.0646 37.3258C29.5032 40.7252 38.1685 37.8017 42.845 31.7507C45.6647 28.0793 54.8802 8.02266 29.7095 5.23513ZM32.7355 38.7535C32.7355 38.7535 19.0498 49.8357 7.35852 18.9009C2.75078 20.1246 0.618836 29.0312 3.36973 36.17C5.02026 40.5892 17.193 58.8782 32.7355 38.7535Z" fill="#254B77"/>
<path id="Vector_2" d="M73.7239 25.2918H60.3133L59.7631 28.0113H74.6867L73.5863 33.1785H51.2354L54.3301 18.9008H61.6887L61.4137 20.1246H74.8242L73.7239 25.2918ZM55.7743 12.17H78.0565L76.9562 17.3371H54.674L55.7743 12.17Z" fill="#254B77"/>
<path id="Vector_3" d="M104.74 18.085H81.2197L82.4576 12.17H105.978L104.74 18.085ZM93.3924 33.1785H86.0338L88.9222 19.6487H96.2809L93.3924 33.1785Z" fill="#254B77"/>
<path id="Vector_4" d="M116.432 18.8329C116.363 19.0368 116.432 19.2408 116.432 19.4448C116.5 19.6487 116.638 19.7847 116.844 19.9207C117.326 20.1246 118.357 20.2606 120.077 20.3286C121.796 20.3966 123.446 20.4646 125.166 20.4646C126.541 20.4646 127.504 20.5326 128.054 20.5326C129.705 20.6006 131.08 21.0085 132.18 21.6204C133.281 22.2323 133.693 23.4561 133.281 25.1558L132.524 28.4873C132.18 30.119 131.286 31.3428 129.842 32.0227C128.398 32.7705 126.954 33.1105 125.51 33.1105H112.443C110.861 33.1105 109.417 32.7705 108.248 32.0227C107.079 31.2748 106.666 30.051 107.01 28.2833L107.422 26.4476H114.781L114.644 27.0595C114.575 27.6714 114.85 27.9433 115.606 28.0113H123.997C124.891 27.9433 125.441 27.5354 125.51 26.7875C125.578 26.4476 125.578 26.1756 125.578 25.9717C125.578 25.7677 125.441 25.4958 125.166 25.3598C124.684 25.1558 123.653 25.0198 121.933 24.8839C120.214 24.8159 118.564 24.7479 116.844 24.7479C115.469 24.7479 114.506 24.6799 113.956 24.6799C112.305 24.6119 110.93 24.204 109.829 23.5921C108.729 22.9802 108.316 21.7564 108.729 20.0567L109.004 18.6969H116.432V18.8329ZM109.348 17.2691L109.417 16.9292C109.761 15.2295 110.655 14.0057 112.03 13.2578C113.406 12.5099 114.85 12.17 116.432 12.17H129.361C130.943 12.17 132.387 12.5099 133.556 13.2578C134.725 13.9377 135.138 15.2295 134.794 16.9972L134.381 18.8329H127.023L127.16 18.221C127.229 17.6091 126.954 17.3371 126.197 17.2691H109.348Z" fill="#254B77"/>
<path id="Vector_5" d="M52.0606 37.3938H52.9547L52.2669 40.7252H54.3989L54.2613 41.4731H51.2354L52.0606 37.3938Z" fill="#254B77"/>
<path id="Vector_6" d="M56.7372 41.2691C56.4621 41.1331 56.187 40.9292 56.0495 40.6572C55.912 40.3853 55.7744 40.1133 55.7744 39.7054C55.7744 39.2295 55.912 38.8215 56.1183 38.4816C56.3246 38.1416 56.6685 37.8017 57.0123 37.5977C57.425 37.3938 57.8376 37.2578 58.319 37.2578C58.7316 37.2578 59.0755 37.3258 59.4193 37.4618C59.6944 37.5977 59.9695 37.8017 60.1071 38.0737C60.2446 38.3456 60.3822 38.6176 60.3822 39.0255C60.3822 39.5014 60.2446 39.9093 60.0383 40.2493C59.832 40.5892 59.4881 40.9292 59.1443 41.1331C58.7316 41.3371 58.319 41.4731 57.8376 41.4731C57.4249 41.5411 57.0811 41.4731 56.7372 41.2691ZM58.7316 40.5212C58.9379 40.3853 59.1443 40.1813 59.2818 39.9093C59.4193 39.6374 59.4881 39.3654 59.4881 39.0935C59.4881 38.7535 59.3506 38.5496 59.1443 38.3456C58.9379 38.1416 58.6628 38.0737 58.2502 38.0737C57.9064 38.0737 57.6313 38.1416 57.425 38.2776C57.2186 38.4136 57.0123 38.6176 56.8748 38.8895C56.7372 39.1615 56.6685 39.4334 56.6685 39.7054C56.6685 40.0453 56.7372 40.2493 56.9435 40.4533C57.1499 40.6572 57.4249 40.7252 57.8376 40.7252C58.2502 40.7252 58.5253 40.6572 58.7316 40.5212Z" fill="#254B77"/>
<path id="Vector_7" d="M64.9208 39.3654H65.746L65.4022 41.0652C65.1959 41.2011 64.9208 41.3371 64.6457 41.4051C64.3706 41.4731 64.0955 41.5411 63.7516 41.5411C63.339 41.5411 62.9952 41.4731 62.6513 41.3371C62.3762 41.2011 62.1011 40.9972 61.9636 40.7252C61.826 40.4533 61.6885 40.1813 61.6885 39.7734C61.6885 39.2975 61.826 38.8895 62.0323 38.5496C62.2387 38.2096 62.5825 37.8697 62.9264 37.6657C63.339 37.4618 63.7516 37.3258 64.3018 37.3258C64.7145 37.3258 65.0583 37.3938 65.3334 37.5297C65.6085 37.6657 65.8836 37.8017 66.0211 38.0057L65.3334 38.5496C65.1959 38.4136 65.0583 38.2776 64.852 38.2096C64.6457 38.1416 64.4394 38.0737 64.2331 38.0737C63.8892 38.0737 63.6141 38.1416 63.4078 38.2776C63.1327 38.4136 62.9952 38.6176 62.8576 38.8895C62.7201 39.1615 62.6513 39.4334 62.6513 39.7054C62.6513 40.0453 62.7888 40.3173 62.9952 40.4533C63.2015 40.6572 63.5453 40.7252 63.8892 40.7252C64.1643 40.7252 64.3706 40.6572 64.5769 40.5892L64.9208 39.3654Z" fill="#254B77"/>
<path id="Vector_8" d="M68.2217 37.3938H69.1846L68.3593 41.4731H67.3965L68.2217 37.3938Z" fill="#254B77"/>
<path id="Vector_9" d="M70.9045 41.4051C70.6294 41.3371 70.3543 41.2011 70.2168 41.0652L70.5607 40.3173C70.767 40.4533 70.9733 40.5892 71.1796 40.6572C71.4547 40.7252 71.661 40.7932 71.9361 40.7932C72.2112 40.7932 72.4175 40.7252 72.5551 40.6572C72.6926 40.5892 72.7614 40.4533 72.7614 40.3173C72.7614 40.1813 72.6926 40.1133 72.5551 40.0453C72.4175 39.9773 72.2112 39.9093 71.9361 39.8414C71.661 39.7734 71.4547 39.7054 71.2484 39.6374C71.1108 39.5694 70.9045 39.4334 70.8357 39.2975C70.6982 39.1615 70.6294 38.9575 70.6294 38.7535C70.6294 38.3456 70.767 38.0057 71.1108 37.7337C71.4547 37.4618 71.9361 37.3938 72.4863 37.3938C72.7614 37.3938 73.0365 37.3938 73.3116 37.4618C73.5866 37.5297 73.793 37.5977 73.9305 37.7337L73.5866 38.4136C73.3116 38.2096 72.8989 38.1416 72.4175 38.1416C72.1424 38.1416 71.9361 38.2096 71.7298 38.2776C71.5922 38.3456 71.4547 38.4816 71.4547 38.6856C71.4547 38.8215 71.5235 38.8895 71.661 38.9575C71.7986 39.0255 72.0049 39.0935 72.28 39.1615C72.5551 39.2295 72.7614 39.2975 72.9677 39.3654C73.1052 39.4334 73.3115 39.5694 73.3803 39.7054C73.5179 39.8414 73.5866 40.0453 73.5866 40.2493C73.5866 40.5212 73.5179 40.7932 73.3803 40.9972C73.2428 41.2011 73.0365 41.3371 72.6926 41.4731C72.4175 41.6091 72.0736 41.6771 71.661 41.6771C71.5235 41.5411 71.2484 41.4731 70.9045 41.4051Z" fill="#254B77"/>
<path id="Vector_10" d="M76.6811 38.1416H75.3057L75.4432 37.3938H79.0881L78.9506 38.1416H77.5752L76.8874 41.4731H75.9934L76.6811 38.1416Z" fill="#254B77"/>
<path id="Vector_11" d="M80.67 37.3938H81.564L80.7388 41.4731H79.8447L80.67 37.3938Z" fill="#254B77"/>
<path id="Vector_12" d="M83.9023 41.2691C83.6272 41.1331 83.3521 40.9292 83.2145 40.6572C83.077 40.3853 82.9395 40.0453 82.9395 39.7054C82.9395 39.2295 83.077 38.8215 83.2833 38.4816C83.4896 38.1416 83.8335 37.8017 84.1774 37.5977C84.59 37.3938 85.0026 37.2578 85.484 37.2578C85.8279 37.2578 86.1717 37.3258 86.4468 37.4618C86.7219 37.5977 86.9282 37.7337 87.0658 38.0057L86.3781 38.5496C86.2405 38.4136 86.103 38.2776 85.9654 38.2096C85.7591 38.1416 85.6216 38.0737 85.3465 38.0737C85.0026 38.0737 84.7275 38.1416 84.5212 38.2776C84.2461 38.4136 84.1086 38.6176 83.971 38.8895C83.8335 39.1615 83.7647 39.4334 83.7647 39.7054C83.7647 40.0453 83.9023 40.3173 84.1086 40.4533C84.3149 40.6572 84.59 40.7252 85.0026 40.7252C85.4153 40.7252 85.8279 40.5892 86.103 40.2493L86.6532 40.7932C86.2405 41.2691 85.6216 41.4731 84.8651 41.4731C84.59 41.5411 84.2461 41.4731 83.9023 41.2691Z" fill="#254B77"/>
<path id="Vector_13" d="M88.6477 41.4051C88.3726 41.3371 88.0975 41.2011 87.96 41.0652L88.3038 40.3173C88.5101 40.4533 88.7165 40.5892 88.9228 40.6572C89.1979 40.7252 89.4042 40.7932 89.6793 40.7932C89.9544 40.7932 90.1607 40.7252 90.2982 40.6572C90.4358 40.5892 90.5045 40.4533 90.5045 40.3173C90.5045 40.1813 90.4358 40.1133 90.2982 40.0453C90.1607 39.9773 89.9544 39.9093 89.6793 39.8414C89.4042 39.7734 89.1979 39.7054 88.9915 39.6374C88.854 39.5694 88.6477 39.4334 88.5789 39.2975C88.4414 39.1615 88.3726 38.9575 88.3726 38.7535C88.3726 38.3456 88.5101 38.0057 88.854 37.7337C89.1979 37.4618 89.6793 37.3938 90.2294 37.3938C90.5045 37.3938 90.7796 37.3938 91.0547 37.4618C91.3298 37.5297 91.5361 37.5977 91.6737 37.7337L91.3298 38.4136C91.0547 38.2096 90.6421 38.1416 90.1607 38.1416C89.8856 38.1416 89.6793 38.2096 89.473 38.2776C89.3354 38.3456 89.1979 38.4816 89.1979 38.6856C89.1979 38.8215 89.2666 38.8895 89.4042 38.9575C89.5417 39.0255 89.748 39.0935 90.0231 39.1615C90.2982 39.2295 90.5045 39.2975 90.7108 39.3654C90.8484 39.4334 91.0547 39.5694 91.1235 39.7054C91.261 39.8414 91.3298 40.0453 91.3298 40.2493C91.3298 40.5212 91.261 40.7932 91.1235 40.9972C90.9859 41.2011 90.7796 41.3371 90.4358 41.4731C90.1607 41.6091 89.8168 41.6771 89.4042 41.6771C89.2666 41.5411 88.9915 41.4731 88.6477 41.4051Z" fill="#254B77"/>
<path id="Vector_14" d="M96.9687 41.2691C96.6936 41.1331 96.4185 40.9292 96.2809 40.6572C96.1434 40.3853 96.0059 40.0453 96.0059 39.7054C96.0059 39.2295 96.1434 38.8215 96.3497 38.4816C96.556 38.1416 96.8999 37.8017 97.2438 37.5977C97.6564 37.3938 98.069 37.2578 98.5504 37.2578C98.8943 37.2578 99.2382 37.3258 99.5132 37.4618C99.7883 37.5977 99.9947 37.7337 100.132 38.0057L99.4445 38.5496C99.3069 38.4136 99.1694 38.2776 99.0318 38.2096C98.8255 38.1416 98.688 38.0737 98.4129 38.0737C98.069 38.0737 97.7939 38.1416 97.5876 38.2776C97.3125 38.4136 97.175 38.6176 97.0374 38.8895C96.8999 39.1615 96.8311 39.4334 96.8311 39.7054C96.8311 40.0453 96.9687 40.3173 97.175 40.4533C97.3813 40.6572 97.6564 40.7252 98.069 40.7252C98.4817 40.7252 98.8943 40.5892 99.1694 40.2493L99.7196 40.7932C99.3069 41.2691 98.688 41.4731 97.9315 41.4731C97.6564 41.5411 97.3125 41.4731 96.9687 41.2691Z" fill="#254B77"/>
<path id="Vector_15" d="M102.195 41.2691C101.92 41.1331 101.645 40.9292 101.508 40.6572C101.37 40.3853 101.232 40.1133 101.232 39.7054C101.232 39.2295 101.37 38.8215 101.576 38.4816C101.783 38.1416 102.126 37.8017 102.47 37.5977C102.883 37.3938 103.296 37.2578 103.777 37.2578C104.19 37.2578 104.533 37.3258 104.877 37.4618C105.152 37.5977 105.428 37.8017 105.565 38.0737C105.703 38.3456 105.84 38.6176 105.84 39.0255C105.84 39.5014 105.703 39.9093 105.496 40.2493C105.29 40.5892 104.946 40.9292 104.602 41.1331C104.19 41.3371 103.777 41.4731 103.296 41.4731C102.883 41.5411 102.539 41.4731 102.195 41.2691ZM104.19 40.5212C104.396 40.3853 104.602 40.1813 104.74 39.9093C104.877 39.6374 104.946 39.3654 104.946 39.0935C104.946 38.7535 104.877 38.5496 104.671 38.3456C104.465 38.1416 104.19 38.0737 103.777 38.0737C103.433 38.0737 103.158 38.1416 102.952 38.2776C102.745 38.4136 102.539 38.6176 102.402 38.8895C102.264 39.1615 102.195 39.4334 102.195 39.7054C102.195 40.0453 102.333 40.2493 102.47 40.4533C102.677 40.6572 102.952 40.7252 103.364 40.7252C103.708 40.7252 103.983 40.6572 104.19 40.5212Z" fill="#254B77"/>
<path id="Vector_16" d="M112.718 37.3938L111.893 41.4731H111.068L111.549 38.9575L109.899 40.9972H109.486L108.592 38.9575L108.11 41.4731H107.285L108.042 37.3938H108.798L109.899 39.9773L111.962 37.3938H112.718Z" fill="#254B77"/>
<path id="Vector_17" d="M117.738 37.7337C118.013 37.9377 118.151 38.2776 118.151 38.6856C118.151 39.0255 118.082 39.2975 117.876 39.5694C117.669 39.8414 117.463 40.0453 117.188 40.1813C116.913 40.3173 116.5 40.3853 116.088 40.3853H115.125L114.918 41.5411H114.024L114.85 37.4618H116.5C117.119 37.3938 117.463 37.4618 117.738 37.7337ZM116.982 39.3654C117.188 39.2295 117.257 39.0255 117.257 38.6856C117.257 38.4816 117.188 38.3456 117.05 38.2096C116.913 38.0737 116.707 38.0737 116.431 38.0737H115.606L115.331 39.5694H116.156C116.569 39.5694 116.775 39.5014 116.982 39.3654Z" fill="#254B77"/>
<path id="Vector_18" d="M123.171 41.4731H122.277L122.071 40.5892H120.076L119.526 41.4731H118.563L121.246 37.3938H122.14L123.171 41.4731ZM121.933 39.9093L121.521 38.2096L120.489 39.9093H121.933Z" fill="#254B77"/>
<path id="Vector_19" d="M129.292 37.3938L128.467 41.4731H127.711L126.129 38.8215L125.579 41.4731H124.685L125.51 37.3938H126.266L127.848 39.9773L128.398 37.3938H129.292Z" fill="#254B77"/>
<path id="Vector_20" d="M132.868 40.0453L132.593 41.4731H131.631L131.974 40.0453L130.874 37.3938H131.768L132.525 39.2295L134.106 37.3938H135L132.868 40.0453Z" fill="#254B77"/>
</g>
<defs>
<clipPath id="clip0_160_3615">
<rect width="135" height="48" fill="white"/>
</clipPath>
</defs>
</svg>
